<svg id="Capa_1" enable-background="new 0 0 512 512" height="512" viewBox="0 0 512 512" width="512" xmlns="http://www.w3.org/2000/svg"><g><g><g><path d="m10 199.177c6.511 57.163 55.035 101.572 113.94 101.572 58.905 0 107.429-44.409 113.94-101.572z" fill="#fff2a0"/><path d="m47.608 199.177c6.251 36.478 38.098 64.329 76.332 64.329s70.081-27.85 76.332-64.329z" fill="#fff7bf"/></g><g><circle cx="123.94" cy="437.242" fill="#ff7d97" r="27.086"/></g><g fill="#ff9eb1"><circle cx="204.774" cy="366.299" r="27.086"/><circle cx="43.106" cy="366.299" r="27.086"/></g><g><circle cx="123.94" cy="166.166" fill="#ffbecb" r="32.164"/></g><g><g><path d="m274.12 199.177c6.511 57.163 55.035 101.572 113.94 101.572 58.905 0 107.429-44.409 113.94-101.572z" fill="#fff2a0"/><path d="m311.728 199.177c6.251 36.478 38.098 64.329 76.332 64.329s70.081-27.85 76.332-64.329z" fill="#fff7bf"/></g><circle cx="388.06" cy="437.242" fill="#ff7d97" r="27.086"/><g fill="#ff9eb1"><circle cx="468.894" cy="366.299" r="27.086"/><circle cx="307.226" cy="366.299" r="27.086"/></g><g><circle cx="388.06" cy="166.166" fill="#ffbecb" r="32.164"/></g></g></g><g><path d="m123.94 379.66c-4.169 0-8.01-2.704-9.405-6.632-1.376-3.874-.213-8.326 2.936-10.99 3.284-2.778 8.091-3.124 11.746-.864 3.489 2.157 5.343 6.41 4.534 10.435-.929 4.612-5.102 8.051-9.811 8.051z"/><path d="m511.935 200.308c.322-2.831-.578-5.665-2.476-7.791-1.896-2.125-4.61-3.341-7.46-3.341h-78.623c4.328-6.621 6.847-14.527 6.847-23.011 0-19.805-13.726-36.465-32.165-40.966v-10.676c16.718-4.428 29.075-19.687 29.075-37.778 0-21.546-17.529-39.074-39.075-39.074s-39.073 17.529-39.073 39.075c0 5.522 4.478 10 10 10s10-4.478 10-10c0-10.518 8.557-19.074 19.074-19.074 10.519 0 19.075 8.557 19.075 19.075s-8.557 19.074-19.075 19.074c-5.522 0-10 4.478-10 10v19.379c-18.438 4.502-32.164 21.161-32.164 40.966 0 8.484 2.519 16.39 6.847 23.011h-78.622c-2.85 0-5.563 1.216-7.461 3.341-1.896 2.126-2.797 4.96-2.475 7.791 3.147 27.634 15.173 52.286 33.041 71.249v59.025c-15.607 4.376-27.086 18.73-27.086 35.716 0 20.449 16.637 37.086 37.086 37.086s37.086-16.637 37.086-37.086c0-16.986-11.479-31.34-27.086-35.716v-41.852c17.598 12.139 38.433 19.843 60.834 21.622v91.174c-15.607 4.376-27.085 18.73-27.085 35.716 0 20.449 16.637 37.086 37.085 37.086 20.449 0 37.086-16.637 37.086-37.086 0-16.986-11.479-31.34-27.086-35.716v-91.173c22.401-1.779 43.236-9.482 60.835-21.622v41.852c-15.607 4.376-27.086 18.73-27.086 35.716 0 20.449 16.637 37.086 37.086 37.086 20.448 0 37.085-16.637 37.085-37.086 0-16.986-11.478-31.34-27.085-35.716v-59.025c17.869-18.965 29.894-43.616 33.041-71.251zm-123.875-56.306c12.222 0 22.165 9.942 22.165 22.164s-9.943 22.165-22.165 22.165-22.164-9.943-22.164-22.165 9.942-22.164 22.164-22.164zm63.387 65.175c-9.518 26.275-34.537 44.329-63.388 44.329s-53.869-18.054-63.387-44.329zm-147.724 0c4.623 16.809 14.263 32.013 27.692 43.455 15.797 13.461 35.913 20.874 56.645 20.874s40.849-7.413 56.646-20.874c13.429-11.442 23.069-26.646 27.692-43.455h17.792c-10.585 47.216-52.668 81.572-102.13 81.572s-91.544-34.356-102.129-81.572zm20.588 157.122c0 9.421-7.665 17.086-17.086 17.086s-17.086-7.665-17.086-17.086 7.665-17.086 17.086-17.086 17.086 7.665 17.086 17.086zm80.834 70.943c0 9.421-7.665 17.086-17.086 17.086s-17.085-7.665-17.085-17.086 7.664-17.086 17.085-17.086 17.086 7.665 17.086 17.086zm80.834-70.943c0 9.421-7.664 17.086-17.085 17.086s-17.086-7.665-17.086-17.086 7.665-17.086 17.086-17.086 17.085 7.665 17.085 17.086z"/><path d="m247.815 200.308c.323-2.831-.578-5.665-2.475-7.791-1.897-2.125-4.611-3.341-7.46-3.341h-78.623c4.328-6.621 6.847-14.527 6.847-23.011 0-19.805-13.726-36.465-32.165-40.966v-10.676c16.718-4.428 29.074-19.687 29.074-37.778 0-21.546-17.529-39.074-39.074-39.074s-39.073 17.529-39.073 39.075c0 5.522 4.477 10 10 10s10-4.478 10-10c0-10.518 8.557-19.074 19.074-19.074s19.074 8.557 19.074 19.075-8.557 19.074-19.074 19.074c-5.523 0-10 4.478-10 10v19.379c-18.439 4.501-32.165 21.161-32.165 40.966 0 8.484 2.519 16.39 6.847 23.011h-78.622c-2.849 0-5.563 1.216-7.46 3.341-1.897 2.126-2.798 4.96-2.475 7.791 3.147 27.634 15.173 52.286 33.042 71.25v59.024c-15.607 4.376-27.086 18.73-27.086 35.716 0 20.449 16.637 37.086 37.086 37.086s37.085-16.637 37.085-37.086c0-16.986-11.478-31.34-27.085-35.716v-41.852c17.599 12.139 38.433 19.843 60.834 21.622v13.92c0 5.522 4.477 10 10 10s10-4.478 10-10v-13.92c22.401-1.779 43.235-9.482 60.834-21.622v41.852c-15.607 4.376-27.085 18.73-27.085 35.716 0 20.449 16.636 37.086 37.085 37.086s37.086-16.637 37.086-37.086c0-16.986-11.479-31.34-27.086-35.716v-59.024c17.867-18.964 29.893-43.616 33.04-71.251zm-123.875-56.306c12.222 0 22.165 9.942 22.165 22.164s-9.943 22.165-22.165 22.165-22.165-9.943-22.165-22.165 9.943-22.164 22.165-22.164zm63.387 65.175c-9.517 26.275-34.536 44.329-63.387 44.329s-53.87-18.054-63.387-44.329zm-147.724 0c4.623 16.809 14.264 32.013 27.692 43.455 15.796 13.461 35.914 20.874 56.645 20.874s40.849-7.413 56.646-20.874c13.428-11.442 23.069-26.646 27.692-43.455h17.792c-10.585 47.216-52.667 81.572-102.129 81.572s-91.546-34.357-102.131-81.572zm20.588 157.122c0 9.421-7.665 17.086-17.085 17.086-9.421 0-17.086-7.665-17.086-17.086s7.665-17.086 17.086-17.086 17.085 7.665 17.085 17.086zm161.669 0c0 9.421-7.665 17.086-17.086 17.086s-17.085-7.665-17.085-17.086 7.665-17.086 17.085-17.086c9.421 0 17.086 7.665 17.086 17.086z"/><path d="m123.94 474.328c-20.449 0-37.086-16.637-37.086-37.086s16.637-37.086 37.086-37.086 37.086 16.637 37.086 37.086-16.637 37.086-37.086 37.086zm0-54.172c-9.421 0-17.086 7.665-17.086 17.086s7.665 17.086 17.086 17.086 17.086-7.665 17.086-17.086-7.665-17.086-17.086-17.086z"/></g></g></svg>