<?xml version="1.0" encoding="iso-8859-1"?>
<!-- Generator: Adobe Illustrator 19.1.0, SVG Export Plug-In . SVG Version: 6.00 Build 0)  -->
<svg version="1.1" id="Capa_1" xmlns="http://www.w3.org/2000/svg" xmlns:xlink="http://www.w3.org/1999/xlink" x="0px" y="0px"
	 viewBox="0 0 472 472" style="enable-background:new 0 0 472 472;" xml:space="preserve">
<g>
	<g id="XMLID_544_">
		<path id="XMLID_1550_" d="M434.8,438.8C422.7,357,393.5,276.1,329.3,237c-26.5,20.9-59,32.2-93.3,32.2s-66.8-11.3-93.3-32.2
			C78.6,276.1,49.4,357,37.2,438.8C34.6,456.3,48.4,472,66.1,472h339.8C423.6,472,437.4,456.3,434.8,438.8z"/>
		<g id="XMLID_1709_">
			<path d="M236,0c-65.1,0-118,52.8-118,118s52.8,118,118,118s118-52.8,118-118S301.1,0,236,0z M236,79.5
				c-21.2,0-38.4,17.2-38.4,38.4c0,9.7-7.9,17.6-17.6,17.6c-9.7,0-17.6-7.9-17.6-17.6c0-40.6,33-73.6,73.6-73.6
				c9.7,0,17.6,7.9,17.6,17.6S245.7,79.5,236,79.5z"/>
		</g>
	</g>
</g>
<g>
</g>
<g>
</g>
<g>
</g>
<g>
</g>
<g>
</g>
<g>
</g>
<g>
</g>
<g>
</g>
<g>
</g>
<g>
</g>
<g>
</g>
<g>
</g>
<g>
</g>
<g>
</g>
<g>
</g>
</svg>
