<svg id="Capa_1" enable-background="new 0 0 512 512" height="512" viewBox="0 0 512 512" width="512" xmlns="http://www.w3.org/2000/svg"><g><g><g><g><path d="m176.845 44.949c0 99.635-81.845 103.491-119.035 128.159-6.824 4.527-9.379 6.221-11.466 11.006-.933 2.141-5.433 317.886 209.566 317.886 223.129 0 210.5-315.745 209.566-317.885-2.087-4.784-4.641-6.479-11.466-11.006-37.19-24.669-119.035-24.65-119.035-128.159h-.023" fill="#ffd0c7"/></g><ellipse cx="255.899" cy="44.949" fill="#ffdcd5" rx="79.054" ry="34.949"/></g><g><g fill="#ccf5fc"><circle cx="256.011" cy="337.012" r="27.051"/><g><circle cx="404.066" cy="188.957" r="27.051"/><circle cx="107.956" cy="188.957" r="27.051"/></g><circle cx="151.321" cy="293.648" r="27.051"/><circle cx="360.702" cy="293.648" r="27.051"/></g><g><g fill="#66e0f7"><circle cx="199.571" cy="325.832" r="27.051"/><g><circle cx="392.886" cy="245.398" r="27.051"/><circle cx="119.136" cy="132.517" r="27.051"/></g><g><circle cx="392.706" cy="132.082" r="27.051"/><circle cx="119.317" cy="245.833" r="27.051"/></g></g><g><g><circle cx="312.887" cy="325.652" fill="#66e0f7" r="27.051"/></g></g></g></g></g><g><path d="m458.431 295.51c-4.172 0-7.987-2.697-9.402-6.615-1.377-3.811-.246-8.23 2.809-10.902 3.288-2.876 8.162-3.266 11.87-.969 3.524 2.182 5.362 6.456 4.51 10.515-.961 4.578-5.098 7.971-9.787 7.971z"/><path d="m474.642 180.115c-3.267-7.488-7.723-10.443-15.104-15.339-9.608-6.374-21.36-11.026-33.812-15.927 4.732-9.335 5.514-20.604 1.188-31.002-7.848-18.861-29.578-27.823-48.441-19.975-6.269 2.608-11.443 6.75-15.271 11.81-12.246-16.187-18.226-37.495-18.226-64.734 0-.277-.012-.551-.034-.823-.724-26.429-36.323-44.125-89.043-44.125-53.266 0-89.054 18.063-89.054 44.949 0 26.689-6.254 47.786-19.059 64.083-3.754-4.596-8.665-8.352-14.525-10.769-18.887-7.787-40.589 1.242-48.377 20.129-3.773 9.149-3.757 19.221.045 28.357.248.597.512 1.186.788 1.765-.035.015-.069.029-.104.043-12.276 5.113-23.871 9.943-33.33 16.217-7.381 4.896-11.837 7.852-15.104 15.341-.546 1.251-1.681 3.854-.565 28.521.609 13.457 2.123 34.728 5.877 59.638 6.551 43.464 21.244 105.788 54.043 155.876 38.172 58.293 91.794 87.85 159.376 87.85 100.218 0 170.167-61.771 202.285-178.634 1.463-5.326-1.667-10.829-6.993-12.293-5.322-1.465-10.829 1.667-12.292 6.992-29.896 108.78-91.466 163.935-183 163.935-48.964 0-89.932-17.46-121.767-51.895-40.957-44.303-59.973-109.313-68.713-156.05-9.004-48.144-9.501-88.073-9.238-97.224.77-1.071 2.271-2.156 7.145-5.39 2.958-1.962 6.322-3.818 9.974-5.623-1.554 4.085-2.406 8.514-2.406 13.138 0 14.336 8.183 26.795 20.124 32.954-8.658 10.273-11.427 24.921-5.92 38.157 5.449 13.095 17.587 21.417 30.813 22.656-3.896 12.699-.829 27.095 9.2 37.124 7.223 7.223 16.711 10.834 26.199 10.834 3.819 0 7.639-.586 11.31-1.756.321 3.783 1.231 7.534 2.732 11.14 3.802 9.138 10.935 16.247 20.084 20.021 4.606 1.899 9.377 2.798 14.076 2.798 8.676 0 17.097-3.068 23.733-8.566 6.225 11.735 18.572 19.746 32.756 19.746 14.335 0 26.795-8.184 32.953-20.124 6.673 5.625 15.192 8.765 23.971 8.765 4.735 0 9.547-.914 14.184-2.844 13.095-5.448 21.418-17.588 22.657-30.814 3.553 1.09 7.239 1.635 10.924 1.635 9.488 0 18.976-3.611 26.2-10.834 10.136-10.137 13.16-24.734 9.071-37.532 13.386-1.142 25.702-9.542 31.167-22.793 3.773-9.149 3.757-19.221-.045-28.358-1.444-3.471-3.369-6.648-5.702-9.462 11.723-6.228 19.725-18.57 19.725-32.745 0-4.539-.821-8.89-2.322-12.913 3.547 1.712 6.813 3.492 9.688 5.399 4.943 3.278 6.417 4.348 7.177 5.434.249 5.672.615 25.955-1.583 52.896-.449 5.505 3.649 10.331 9.153 10.78.277.022.552.034.825.034 5.154 0 9.529-3.96 9.956-9.188 1.428-17.504 1.789-31.966 1.84-41.016.096-17.274-.537-18.728-1.209-20.269zm-70.576 25.894c-9.402 0-17.051-7.649-17.051-17.052 0-9.401 7.649-17.051 17.051-17.051s17.051 7.649 17.051 17.051-7.649 17.052-17.051 17.052zm-27.124-80.428c1.736-4.211 5.008-7.493 9.214-9.243 2.134-.888 4.348-1.309 6.527-1.309 6.684 0 13.042 3.956 15.765 10.502 3.612 8.681-.512 18.681-9.192 22.293-8.681 3.611-18.682-.512-22.293-9.192-1.75-4.205-1.757-8.84-.021-13.051zm-174.801-96.275c12.919-6.001 32.01-9.306 53.758-9.306s40.839 3.305 53.758 9.306c9.721 4.516 15.296 10.218 15.296 15.644 0 5.427-5.575 11.129-15.296 15.645-12.919 6.001-32.01 9.306-53.758 9.306s-40.839-3.305-53.758-9.306c-9.721-4.516-15.296-10.218-15.296-15.645s5.575-11.129 15.296-15.644zm-17.699 44.175c15.564 10.345 40.572 16.418 71.457 16.418 30.804 0 55.762-6.042 71.335-16.337 4.017 23.649 13.421 42.749 28.427 57.889-.091 4.954.815 10.004 2.837 14.864 3.5 8.413 9.762 14.855 17.3 18.716-5.476 6.46-8.782 14.814-8.782 23.926 0 8.994 3.221 17.249 8.57 23.674-7.66 4.027-13.613 10.544-16.953 18.643-3.473 8.424-3.601 17.408-1.001 25.467-8.44.696-16.685 4.265-23.129 10.708-6.364 6.365-9.924 14.488-10.681 22.82-7.991-2.477-16.858-2.282-25.169 1.176-8.412 3.5-14.855 9.762-18.716 17.299-6.46-5.476-14.814-8.783-23.926-8.783-8.994 0-17.249 3.222-23.673 8.571-4.027-7.66-10.545-13.613-18.643-16.953-8.195-3.379-17.129-3.718-25.469-1.021-.7-8.434-4.268-16.672-10.707-23.11-6.359-6.359-14.474-9.918-22.799-10.679 2.569-8.264 2.17-17.083-1.195-25.17-3.406-8.183-9.483-14.741-17.288-18.73 5.469-6.458 8.77-14.807 8.77-23.912 0-8.993-3.221-17.248-8.57-23.673 7.66-4.027 13.613-10.545 16.952-18.643 2.27-5.505 3.111-11.248 2.696-16.817 14.87-15.061 24.254-33.666 28.357-56.343zm-81.069 52.537c2.71-6.573 9.082-10.552 15.786-10.552 2.162 0 4.358.414 6.478 1.288 4.21 1.736 7.493 5.008 9.243 9.213s1.757 8.84.021 13.051c-1.736 4.21-5.008 7.493-9.213 9.242-4.205 1.751-8.839 1.759-13.05.021-4.21-1.736-7.493-5.008-9.243-9.213s-1.758-8.84-.022-13.05zm4.584 45.888c9.402 0 17.051 7.649 17.051 17.051s-7.649 17.052-17.051 17.052-17.051-7.649-17.051-17.052c-.001-9.401 7.649-17.051 17.051-17.051zm-4.383 80.478c-3.612-8.681.512-18.682 9.192-22.294 2.135-.888 4.349-1.309 6.528-1.309 6.684 0 13.042 3.956 15.765 10.502 3.612 8.681-.512 18.681-9.192 22.293-8.679 3.612-18.681-.512-22.293-9.192zm35.69 53.321c-6.648-6.648-6.648-17.466 0-24.114 3.325-3.324 7.69-4.986 12.058-4.986 4.366 0 8.733 1.662 12.057 4.986 6.648 6.648 6.648 17.466 0 24.114-6.649 6.648-17.467 6.649-24.115 0zm76.071 26.627c-3.584 8.692-13.57 12.85-22.264 9.264-4.21-1.736-7.493-5.008-9.243-9.213s-1.757-8.84-.021-13.051c1.736-4.21 5.008-7.493 9.213-9.242 2.111-.879 4.33-1.317 6.55-1.317 2.202 0 4.404.432 6.501 1.297 4.21 1.736 7.493 5.008 9.243 9.213s1.757 8.839.021 13.049zm40.676 21.731c-9.402 0-17.051-7.649-17.051-17.051s7.649-17.052 17.051-17.052 17.051 7.649 17.051 17.052c.001 9.402-7.649 17.051-17.051 17.051zm72.64-21.911c-1.736 4.211-5.008 7.493-9.214 9.243-8.679 3.611-18.68-.513-22.293-9.193-3.612-8.681.512-18.681 9.192-22.293 8.682-3.609 18.682.513 22.293 9.192 1.751 4.206 1.758 8.84.022 13.051zm44.108-26.447c-6.648 6.647-17.466 6.647-24.115 0-6.648-6.648-6.648-17.466 0-24.114 6.648-6.647 17.466-6.649 24.114 0 6.649 6.648 6.649 17.466.001 24.114zm35.891-53.808c-3.584 8.692-13.572 12.85-22.264 9.264-8.692-3.584-12.848-13.572-9.264-22.264 1.736-4.211 5.009-7.493 9.214-9.243 4.206-1.748 8.84-1.757 13.05-.021s7.493 5.008 9.243 9.213c1.749 4.207 1.757 8.842.021 13.051z"/></g></g></svg>